# File created by Blade
# Date/Time:  Wed Apr 08 17:31:39 2015
# Frame Rate: 120.000 fps
#------------------------------------------------------
:FULLY-SPECIFIED
:DEGREES
699
root -0.472853 22.400209 0.461710 -736.902946 -67.773926 563.507089
Spine 194.687465 -11.936365 -4.601274
Head 15.053828 7.789687 3.984801
LeftShoulder -6.554832 25.373699 25.037019
LeftArm 17.596993 12.482783 -83.891669
LeftForeArm 17.892806 0.000000 38.338028
LeftHand -13.470738 -0.000000 1.097305
LeftHandThumb1 -26.253704 0.000000 33.147579
RightShoulder -24.172351 -52.811324 -10.557891
RightArm 57.976719 -10.609659 38.041850
RightForeArm -0.280878 -0.000000 41.105474
RightHand 4.397543 0.000000 1.215067
RightHandThumb1 -24.326973 -0.000000 -32.862282
LeftUpLeg 127.902186 -18.977877 -21.628007
LeftLeg 124.545349 -0.000000 -0.000000
LeftFoot -28.932876 -0.950873 -15.942128
LeftToeBase -30.199027 -0.000000 0.000000
RightUpLeg 121.116361 21.392072 7.343719
RightLeg 112.433967 -0.000000 -0.000000
RightFoot -35.876303 25.755551 -0.526463
RightToeBase -10.767310 -0.000000 0.000000
700
root -0.481719 22.397950 0.478614 -737.113489 -67.329589 563.718141
Spine 194.738345 -12.152738 -4.800903
Head 15.054722 7.643554 3.990780
LeftShoulder -6.557952 25.350276 25.061430
LeftArm 17.515385 12.519145 -83.905076
LeftForeArm 17.884441 -0.000000 38.370272
LeftHand -13.483259 -0.000000 1.118712
LeftHandThumb1 -26.253704 0.000000 33.147579
RightShoulder -24.052438 -52.713697 -10.675908
RightArm 58.008733 -10.605043 37.933150
RightForeArm -0.189680 -0.000000 40.884320
RightHand 4.445302 -0.000000 1.301019
RightHandThumb1 -24.326973 -0.000000 -32.862282
LeftUpLeg 128.084775 -19.190269 -21.828473
LeftLeg 124.640284 -0.000000 -0.000000
LeftFoot -28.969120 -0.812560 -16.012445
LeftToeBase -30.244753 -0.000000 0.000000
RightUpLeg 121.107846 21.574510 7.132075
RightLeg 112.268080 -0.000000 -0.000000
RightFoot -35.848111 26.131984 -0.782498
RightToeBase -10.547327 -0.000000 0.000000
701
root -0.490587 22.396452 0.492081 -737.240917 -66.908580 563.889647
Spine 194.747070 -12.335523 -4.967239
Head 15.052032 7.557094 3.988394
LeftShoulder -6.596095 25.348117 25.062168
LeftArm 17.483479 12.530470 -83.909025
LeftForeArm 17.909397 -0.000000 38.375422
LeftHand -13.433523 -0.000000 1.037532
LeftHandThumb1 -26.253704 0.000000 33.147579
RightShoulder -23.845700 -52.594234 -10.894830
RightArm 58.022997 -10.626634 37.901211
RightForeArm -0.156675 -0.000000 40.630215
RightHand 4.512076 -0.000000 1.427128
RightHandThumb1 -24.326973 -0.000000 -32.862282
LeftUpLeg 128.219274 -19.428155 -22.002499
LeftLeg 124.725581 -0.000000 -0.000000
LeftFoot -28.993289 -0.667152 -16.045148
LeftToeBase -30.227346 -0.000000 0.000000
RightUpLeg 121.066020 21.811520 6.931113
RightLeg 112.109742 -0.000000 -0.000000
RightFoot -35.824726 26.591556 -1.030656
RightToeBase -10.206373 -0.000000 0.000000
702
root -0.497235 22.393595 0.507364 -737.416433 -66.479238 564.031999
Spine 194.816871 -12.513252 -5.138343
Head 15.065109 7.481887 3.998282
LeftShoulder -6.625054 25.350335 25.071850
LeftArm 17.415880 12.527672 -83.937577
LeftForeArm 17.869378 -0.000000 38.401772
LeftHand -13.472602 -0.000000 1.091863
LeftHandThumb1 -26.253704 0.000000 33.147579
RightShoulder -23.689031 -52.503140 -11.028165
RightArm 58.038929 -10.614912 37.747294
RightForeArm -0.005829 -0.000000 40.425291
RightHand 4.686187 -0.000000 1.636685
RightHandThumb1 -24.326973 -0.000000 -32.862282
LeftUpLeg 128.424649 -19.636574 -22.196579
LeftLeg 124.815416 -0.000000 -0.000000
LeftFoot -29.019330 -0.555168 -16.123031
LeftToeBase -30.245336 -0.000000 0.000000
RightUpLeg 121.077651 21.995345 6.757536
RightLeg 111.960603 -0.000000 -0.000000
RightFoot -35.765002 27.021358 -1.225246
RightToeBase -9.905692 -0.000000 0.000000
703
root -0.501992 22.391580 0.518072 -737.587676 -66.047411 564.193045
Spine 194.876933 -12.733127 -5.301546
Head 15.059026 7.412473 4.042568
LeftShoulder -6.608840 25.371003 25.104676
LeftArm 17.402974 12.559653 -83.914286
LeftForeArm 17.649782 -0.000000 38.437966
LeftHand -13.519276 -0.000000 1.243119
LeftHandThumb1 -26.253704 0.000000 33.147579
RightShoulder -23.565323 -52.425820 -11.123874
RightArm 58.038379 -10.606408 37.659903
RightForeArm 0.073730 -0.000000 40.238440
RightHand 4.584894 -0.000000 1.621808
RightHandThumb1 -24.326973 -0.000000 -32.862282
LeftUpLeg 128.619996 -19.857751 -22.429617
LeftLeg 124.897701 -0.000000 -0.000000
LeftFoot -28.999528 -0.499249 -16.202715
LeftToeBase -30.393536 -0.000000 0.000000
RightUpLeg 121.063857 22.162226 6.555070
RightLeg 111.817487 -0.000000 -0.000000
RightFoot -35.706920 27.432792 -1.430138
RightToeBase -9.588945 -0.000000 0.000000
704
root -0.509017 22.388747 0.532978 -737.726871 -65.621812 564.298167
Spine 194.953980 -12.950673 -5.474977
Head 15.070948 7.317867 4.068613
LeftShoulder -6.607429 25.384315 25.092394
LeftArm 17.382775 12.535611 -83.902963
LeftForeArm 17.629526 0.000000 38.477986
LeftHand -13.490426 -0.000000 1.222895
LeftHandThumb1 -26.253704 0.000000 33.147579
RightShoulder -23.490733 -52.382422 -11.188376
RightArm 58.062083 -10.567064 37.563642
RightForeArm 0.144838 -0.000000 40.013121
RightHand 4.540127 -0.000000 1.559144
RightHandThumb1 -24.326973 -0.000000 -32.862282
LeftUpLeg 128.821075 -20.067462 -22.626570
LeftLeg 124.992871 -0.000000 -0.000000
LeftFoot -28.976680 -0.407812 -16.257701
LeftToeBase -30.428161 -0.000000 0.000000
RightUpLeg 121.051070 22.361084 6.359917
RightLeg 111.697828 -0.000000 -0.000000
RightFoot -35.661900 27.685122 -1.699619
RightToeBase -9.311309 -0.000000 0.000000
705
root -0.510018 22.384698 0.545567 -737.883812 -65.194270 564.347789
Spine 195.099262 -13.153807 -5.634952
Head 15.075945 7.276032 4.097502
LeftShoulder -6.624813 25.396615 25.083703
LeftArm 17.331791 12.451508 -83.903398
LeftForeArm 17.739117 0.000000 38.537167
LeftHand -13.226929 -0.000000 0.929943
LeftHandThumb1 -26.253704 0.000000 33.147579
RightShoulder -23.391689 -52.349761 -11.285227
RightArm 58.065856 -10.509629 37.549472
RightForeArm 0.309440 -0.000000 39.804228
RightHand 4.598457 -0.000000 1.619235
RightHandThumb1 -24.326973 -0.000000 -32.862282
LeftUpLeg 129.081600 -20.250526 -22.834848
LeftLeg 125.083650 -0.000000 -0.000000
LeftFoot -28.961867 -0.302447 -16.309584
LeftToeBase -30.430827 -0.000000 0.000000
RightUpLeg 121.101731 22.485334 6.253685
RightLeg 111.576249 -0.000000 -0.000000
RightFoot -35.513036 28.207414 -1.764821
RightToeBase -8.953299 -0.000000 0.000000
